<?xml version="1.0" encoding="UTF-8" standalone="no"?>
<!-- Created with Inkscape (http://www.inkscape.org/) -->

<svg
   xmlns:dc="http://purl.org/dc/elements/1.1/"
   xmlns:cc="http://creativecommons.org/ns#"
   xmlns:rdf="http://www.w3.org/1999/02/22-rdf-syntax-ns#"
   xmlns:svg="http://www.w3.org/2000/svg"
   xmlns="http://www.w3.org/2000/svg"
   xmlns:sodipodi="http://sodipodi.sourceforge.net/DTD/sodipodi-0.dtd"
   xmlns:inkscape="http://www.inkscape.org/namespaces/inkscape"
   width="100.67717"
   height="150.85828"
   viewBox="0 0 26.637501 39.914585"
   version="1.1"
   id="svg8"
   inkscape:version="0.92.1 r15371"
   sodipodi:docname="bulb_on.svg">
  <defs
     id="defs2">
    <clipPath
       clipPathUnits="userSpaceOnUse"
       id="clipPath3805">
      <path
         style="fill:#b3b3b3;stroke-width:0.75595242"
         d="m 82.172024,194.55716 c -4.869378,-1.48185 -6.630934,-2.99588 -5.639972,-4.84751 0.573918,-1.07237 0.303022,-1.811 -1.22438,-3.3384 -1.848816,-1.84882 -1.893462,-2.06498 -0.778069,-3.76729 1.054524,-1.6094 1.06172,-2.09688 0.06613,-4.47966 -0.614439,-1.47056 -1.11716,-3.62952 -1.11716,-4.79768 0,-1.16816 -0.461865,-2.79494 -1.026367,-3.61505 -0.564499,-0.82012 -1.463167,-2.85184 -1.997038,-4.51493 -0.59164,-1.84306 -2.921354,-5.09604 -5.966195,-8.33061 -5.674686,-6.02828 -8.586729,-10.96522 -10.262309,-17.3982 -3.277315,-12.58246 0.689679,-24.97618 11.1541,-34.84778 9.75994,-9.207038 22.238856,-13.620221 36.446016,-12.889183 13.27299,0.682966 23.70714,5.025467 32.29495,13.440543 11.71207,11.4765 14.63212,27.24705 7.67189,41.43404 -2.12293,4.32716 -4.27006,7.095 -9.45069,12.18273 -3.687,3.6209 -6.70365,7.12756 -6.70365,7.79257 0,0.66501 -1.03305,2.38569 -2.29567,3.82374 -2.80509,3.19483 -4.77218,9.88651 -3.50343,11.91809 0.66647,1.06719 0.55384,1.86818 -0.5178,3.68231 -1.09606,1.85549 -1.18508,2.54069 -0.44579,3.43147 1.37718,1.65941 -0.99261,3.88357 -5.59373,5.24995 -5.25686,1.56113 -25.837272,1.47568 -31.110836,-0.12915 z"
         id="path3807"
         inkscape:connector-curvature="0" />
    </clipPath>
    <clipPath
       clipPathUnits="userSpaceOnUse"
       id="clipPath3809">
      <path
         style="fill:#b3b3b3;stroke-width:0.75595242"
         d="m 82.172024,194.55716 c -4.869378,-1.48185 -6.630934,-2.99588 -5.639972,-4.84751 0.573918,-1.07237 0.303022,-1.811 -1.22438,-3.3384 -1.848816,-1.84882 -1.893462,-2.06498 -0.778069,-3.76729 1.054524,-1.6094 1.06172,-2.09688 0.06613,-4.47966 -0.614439,-1.47056 -1.11716,-3.62952 -1.11716,-4.79768 0,-1.16816 -0.461865,-2.79494 -1.026367,-3.61505 -0.564499,-0.82012 -1.463167,-2.85184 -1.997038,-4.51493 -0.59164,-1.84306 -2.921354,-5.09604 -5.966195,-8.33061 -5.674686,-6.02828 -8.586729,-10.96522 -10.262309,-17.3982 -3.277315,-12.58246 0.689679,-24.97618 11.1541,-34.84778 9.75994,-9.207038 22.238856,-13.620221 36.446016,-12.889183 13.27299,0.682966 23.70714,5.025467 32.29495,13.440543 11.71207,11.4765 14.63212,27.24705 7.67189,41.43404 -2.12293,4.32716 -4.27006,7.095 -9.45069,12.18273 -3.687,3.6209 -6.70365,7.12756 -6.70365,7.79257 0,0.66501 -1.03305,2.38569 -2.29567,3.82374 -2.80509,3.19483 -4.77218,9.88651 -3.50343,11.91809 0.66647,1.06719 0.55384,1.86818 -0.5178,3.68231 -1.09606,1.85549 -1.18508,2.54069 -0.44579,3.43147 1.37718,1.65941 -0.99261,3.88357 -5.59373,5.24995 -5.25686,1.56113 -25.837272,1.47568 -31.110836,-0.12915 z"
         id="path3811"
         inkscape:connector-curvature="0" />
    </clipPath>
  </defs>
  <sodipodi:namedview
     id="base"
     pagecolor="#ffffff"
     bordercolor="#666666"
     borderopacity="1.0"
     inkscape:pageopacity="0.0"
     inkscape:pageshadow="2"
     inkscape:zoom="3.5866667"
     inkscape:cx="52.686451"
     inkscape:cy="73.03287"
     inkscape:document-units="mm"
     inkscape:current-layer="layer1"
     showgrid="false"
     inkscape:window-width="1366"
     inkscape:window-height="705"
     inkscape:window-x="-8"
     inkscape:window-y="-8"
     inkscape:window-maximized="1"
     showborder="true"
     inkscape:snap-bbox="true"
     inkscape:bbox-paths="true"
     units="px" />
  <metadata
     id="metadata5">
    <rdf:RDF>
      <cc:Work
         rdf:about="">
        <dc:format>image/svg+xml</dc:format>
        <dc:type
           rdf:resource="http://purl.org/dc/dcmitype/StillImage" />
        <dc:title></dc:title>
      </cc:Work>
    </rdf:RDF>
  </metadata>
  <g
     inkscape:label="Layer 1"
     inkscape:groupmode="layer"
     id="layer1"
     transform="translate(0,-257.08542)">
    <path
       style="fill:#ffff00;stroke-width:0.58943814"
       d="m 87.124316,196.15489 c -5.14705,-0.94061 -9.052149,-2.34458 -10.574576,-3.80178 l -1.296417,-1.24087 0.957695,-1.43538 0.957695,-1.43539 -1.486356,-0.90796 c -0.817492,-0.49937 -1.739916,-1.47347 -2.049833,-2.16465 -0.477463,-1.06487 -0.388228,-1.51764 0.584615,-2.9662 l 1.148086,-1.7095 -1.086424,-2.32297 c -0.693428,-1.48268 -1.003338,-2.91108 -0.856734,-3.94875 0.168528,-1.19283 -0.283942,-2.51111 -1.69911,-4.9504 -1.109819,-1.91296 -1.928806,-4.04545 -1.928806,-5.02224 0,-1.34498 -0.834279,-2.45379 -4.016398,-5.33802 -6.956841,-6.30559 -11.369393,-14.16281 -12.695532,-22.60633 -3.73081,-23.75407 18.238415,-45.22969 46.264445,-45.22496 25.856264,0.004 46.716864,17.88389 46.695964,40.02288 -0.0109,11.59527 -5.1925,21.5518 -15.46334,29.71331 -2.32883,1.85056 -3.99578,3.69185 -4.28395,4.73199 -0.78759,2.84284 -1.85196,4.62841 -3.65704,6.13503 -1.25294,1.04576 -1.72018,1.91785 -1.72018,3.21063 0,0.97617 -0.39609,2.7069 -0.88019,3.84606 l -0.8802,2.07117 0.8802,0.87192 c 1.25311,1.24132 1.08908,3.07585 -0.41683,4.66193 -1.5223,1.60335 -1.62075,2.27392 -0.43599,2.96992 2.55928,1.50348 -0.27267,4.12463 -6.49881,6.01505 -3.70905,1.12617 -20.882064,1.68077 -25.561984,0.82551 z"
       id="path22"
       inkscape:connector-curvature="0"
       clip-path="url(#clipPath3805)"
       transform="matrix(0.28630183,0,0,0.3810335,-15.083668,222.32003)" />
    <path
       style="fill:#000000;stroke:#000000;stroke-width:0.26458332px;stroke-linecap:butt;stroke-linejoin:miter;stroke-opacity:1"
       d="m 6.4935337,291.09397 12.5378743,0.12094"
       id="path21"
       inkscape:connector-curvature="0" />
    <path
       style="fill:#000000;stroke-width:0.28040573"
       d="m 40.720669,150.28361 c -0.46267,-0.0539 -2.039952,-0.23471 -3.505072,-0.40172 -5.80669,-0.66192 -11.047357,-3.40043 -11.614398,-6.0691 -0.09335,-0.43933 0.0664,-1.53467 0.367078,-2.51693 0.292793,-0.9565 0.428207,-1.77669 0.300919,-1.82263 -0.558295,-0.20154 -3.35429,-4.83671 -3.35429,-5.56071 0,-0.42695 0.314223,-1.45127 0.698275,-2.27625 0.384051,-0.82499 0.699507,-1.7293 0.701014,-2.00957 0.0026,-0.48884 0.72533,-0.50303 17.738401,-0.34834 9.754614,0.0887 20.480133,0.23096 23.834486,0.31615 4.915868,0.12484 6.101749,0.0836 6.113905,-0.21248 0.02782,-0.67754 1.098231,2.98757 1.102412,3.77466 0.0022,0.42744 -0.437509,1.90736 -0.97729,3.28873 -1.065056,2.72562 -1.178158,3.68697 -0.560811,4.7669 1.296711,2.26836 -0.462196,5.04358 -4.486492,7.07883 -1.960482,0.99149 -3.137445,1.28092 -7.148627,1.75794 -3.178314,0.37796 -16.575969,0.54154 -19.20951,0.23452 z"
       id="path23"
       inkscape:connector-curvature="0"
       transform="matrix(0.26458333,0,0,0.26458333,0,257.08542)" />
    <path
       style="fill:#000000;stroke-width:0.28040573"
       d="m 37.946944,149.88018 c -5.039386,-0.68291 -9.343634,-2.39239 -11.201442,-4.44876 -1.140354,-1.26223 -1.219093,-1.78841 -0.63378,-4.23523 0.344616,-1.44062 0.331703,-1.6091 -0.170905,-2.22979 -1.067503,-1.31831 -2.745506,-4.45338 -2.745506,-5.12952 0,-0.37843 0.302201,-1.49206 0.671558,-2.47473 l 0.671558,-1.78667 8.371526,-0.0891 c 4.60434,-0.049 15.331891,-0.003 23.839001,0.10325 l 15.467474,0.19239 0.305348,1.21264 c 0.479681,1.90499 0.369241,2.99643 -0.556712,5.50177 -0.885073,2.39474 -0.955572,3.55141 -0.331476,5.43852 0.937281,2.83412 -3.333777,6.5267 -8.783519,7.59388 -2.635126,0.51601 -21.702916,0.78506 -24.903125,0.35139 z"
       id="path25"
       inkscape:connector-curvature="0"
       transform="matrix(0.26458333,0,0,0.26458333,0,257.08542)" />
    <path
       style="fill:#000000;stroke-width:0.28040573"
       d="m 37.946944,149.88018 c -5.039386,-0.68291 -9.343634,-2.39239 -11.201442,-4.44876 -1.127475,-1.24798 -1.186147,-1.58996 -0.68721,-4.00557 0.281111,-1.36101 0.27169,-1.74877 -0.05491,-2.26013 -1.943346,-3.04271 -2.806104,-4.71506 -2.793606,-5.41507 0.008,-0.44566 0.304344,-1.56739 0.658638,-2.49273 l 0.644171,-1.68244 8.664852,-0.0891 c 4.765669,-0.049 15.499029,-0.003 23.851911,0.10321 l 15.18706,0.19228 0.305356,1.21268 c 0.475549,1.88857 0.372379,2.9244 -0.558997,5.6124 -0.874843,2.52485 -0.933412,3.47936 -0.326917,5.32792 0.930961,2.83753 -3.337596,6.527 -8.785784,7.59388 -2.635126,0.51601 -21.702916,0.78506 -24.903125,0.35139 z"
       id="path27"
       inkscape:connector-curvature="0"
       transform="matrix(0.26458333,0,0,0.26458333,0,257.08542)" />
    <path
       style="fill:#000000;stroke-width:0.28040573"
       d="m 38.056814,149.8941 c -5.22113,-0.70983 -9.42136,-2.37073 -11.32558,-4.47847 -1.110876,-1.22961 -1.193908,-1.72808 -0.697347,-4.18643 l 0.314924,-1.55911 -1.57675,-2.49634 c -1.792443,-2.83783 -1.875063,-3.37872 -0.903628,-5.91583 l 0.644187,-1.68244 9.506053,-0.0889 c 5.228329,-0.0489 15.961669,-0.002 23.851867,0.1031 l 14.345815,0.19196 0.305384,1.2128 c 0.473115,1.8789 0.375926,2.8235 -0.595408,5.78689 -0.898089,2.73995 -0.899465,2.75313 -0.45908,4.39676 0.375107,1.39997 0.386368,1.81226 0.07468,2.73412 -0.787258,2.32844 -4.651266,4.8253 -8.691865,5.61654 -2.589081,0.50699 -21.681841,0.78831 -24.793255,0.36531 z"
       id="path29"
       inkscape:connector-curvature="0"
       transform="matrix(0.26458333,0,0,0.26458333,0,257.08542)" />
    <path
       style="fill:#000000;stroke-width:0.28040573"
       d="m 37.636206,149.86504 c -4.593542,-0.58349 -9.069693,-2.41798 -10.933445,-4.48093 -1.080355,-1.19582 -1.162948,-1.70887 -0.668874,-4.15491 l 0.314924,-1.55911 -1.597099,-2.52365 c -1.783927,-2.81887 -1.85536,-3.36056 -0.822385,-6.23627 l 0.52781,-1.46938 14.020286,-0.002 c 7.711157,-0.001 18.458343,0.0808 23.882637,0.18247 l 9.862349,0.18479 0.302359,1.20077 c 0.46586,1.85011 0.374094,2.75309 -0.588311,5.78902 -0.880659,2.77806 -0.885816,2.82772 -0.459078,4.4204 0.362537,1.35307 0.373804,1.77885 0.07042,2.66134 -0.481042,1.39925 -1.857413,2.78118 -3.90818,3.92396 -2.180239,1.21492 -4.094148,1.73747 -7.670765,2.09434 -3.464113,0.34564 -19.544258,0.32367 -22.332647,-0.0305 z"
       id="path31"
       inkscape:connector-curvature="0"
       transform="matrix(0.26458333,0,0,0.26458333,0,257.08542)" />
    <path
       style="fill:#000000;stroke-width:0.28040573"
       d="m 37.636206,149.86504 c -4.593542,-0.58349 -9.069693,-2.41798 -10.933445,-4.48093 -1.081072,-1.19661 -1.169986,-1.74913 -0.676726,-4.20525 0.305346,-1.52043 0.300847,-1.53842 -0.800545,-3.20133 -2.292339,-3.46103 -2.38611,-3.91222 -1.400198,-6.73716 l 0.629981,-1.80509 14.862435,4.7e-4 c 8.174339,2.6e-4 18.917876,0.0835 23.874524,0.18489 l 9.012085,0.18441 0.311405,1.03937 c 0.495813,1.65488 0.371692,2.95129 -0.565657,5.90818 -0.862298,2.72014 -0.870037,2.79457 -0.459896,4.42277 0.518666,2.05901 0.184697,3.25583 -1.345945,4.82335 -2.085282,2.13552 -5.30492,3.38993 -9.994408,3.89394 -3.239965,0.34821 -19.713896,0.328 -22.51361,-0.0276 z"
       id="path33"
       inkscape:connector-curvature="0"
       transform="matrix(0.26458333,0,0,0.26458333,0,257.08542)" />
    <path
       style="fill:#000000;stroke-width:0.28040573"
       d="m 37.636206,149.86504 c -4.593542,-0.58349 -9.069693,-2.41798 -10.933445,-4.48093 -1.078151,-1.19338 -1.181343,-1.82104 -0.682113,-4.14887 l 0.301686,-1.40671 -1.563511,-2.58109 c -1.774983,-2.9302 -1.85995,-3.48076 -0.935164,-6.05962 l 0.628463,-1.75254 15.705228,5.2e-4 c 8.637875,2.8e-4 19.396682,0.0837 23.90846,0.1854 l 8.20323,0.1849 0.30285,1.12469 c 0.40748,1.51326 0.220943,3.19099 -0.695269,6.25338 -0.731719,2.44573 -0.748215,2.63073 -0.365304,4.09706 0.503457,1.92794 0.143321,3.17069 -1.367093,4.71749 -2.085282,2.13552 -5.30492,3.38993 -9.994408,3.89394 -3.239965,0.34821 -19.713896,0.328 -22.51361,-0.0276 z"
       id="path35"
       inkscape:connector-curvature="0"
       transform="matrix(0.26458333,0,0,0.26458333,0,257.08542)" />
    <path
       style="fill:#000000;stroke-width:0.28040573"
       d="m 37.566016,149.9007 c -4.529757,-0.62609 -9.044104,-2.503 -10.863255,-4.51659 -1.076773,-1.19185 -1.181154,-1.82192 -0.685057,-4.13514 l 0.298742,-1.39299 -1.560567,-2.58863 c -1.772336,-2.93991 -1.857928,-3.4981 -0.93222,-6.07953 l 0.628463,-1.75254 16.546445,5.7e-4 c 9.100545,3.2e-4 19.858395,0.0837 23.906335,0.18519 l 7.35989,0.18461 0.279601,1.00654 c 0.457098,1.64551 0.323532,3.09325 -0.55386,6.00333 -0.79283,2.62962 -0.813196,2.82641 -0.452507,4.37255 0.312041,1.3376 0.314172,1.80375 0.01225,2.68198 -0.523528,1.52284 -2.206526,3.11608 -4.47147,4.23298 -3.500778,1.72632 -4.637254,1.85831 -16.824343,1.95402 -6.014703,0.0472 -11.724504,-0.0231 -12.688447,-0.15635 z"
       id="path37"
       inkscape:connector-curvature="0"
       transform="matrix(0.26458333,0,0,0.26458333,0,257.08542)" />
    <path
       style="fill:#000000;stroke-width:0.28040573"
       d="m 37.566016,149.9007 c -4.529757,-0.62609 -9.044104,-2.503 -10.863255,-4.51659 -1.073321,-1.18803 -1.219295,-2.11019 -0.69427,-4.3859 0.266254,-1.15407 0.22226,-1.28437 -1.26868,-3.75751 -1.752502,-2.90701 -1.840159,-3.47468 -0.934671,-6.05288 l 0.615506,-1.75254 h 17.14769 c 9.43123,0 20.196143,0.0833 23.922031,0.18503 l 6.774341,0.18503 0.279643,1.00669 c 0.449866,1.61948 0.330357,3.21978 -0.414661,5.55261 -0.755567,2.36585 -0.865483,3.83648 -0.409468,5.47851 0.811825,2.92324 -3.082792,6.40433 -8.591648,7.67939 -1.559319,0.36091 -4.076426,0.46542 -12.874111,0.53451 -6.014702,0.0472 -11.724504,-0.0231 -12.688447,-0.15635 z"
       id="path39"
       inkscape:connector-curvature="0"
       transform="matrix(0.26458333,0,0,0.26458333,0,257.08542)" />
    <path
       style="fill:#000000;stroke-width:0.28040573"
       d="m 37.571425,149.90129 c -4.543242,-0.62835 -9.031801,-2.48399 -10.834184,-4.47901 -1.107127,-1.22546 -1.25827,-2.12956 -0.734965,-4.39641 0.257804,-1.11675 0.202282,-1.28179 -1.268681,-3.77108 -1.734932,-2.93599 -1.823407,-3.50145 -0.95173,-6.08263 l 0.586554,-1.73688 h 17.594502 c 9.676976,0 20.453627,0.0832 23.94811,0.18491 l 6.353607,0.1849 0.27968,1.00682 c 0.445864,1.60507 0.333164,3.12319 -0.418209,5.63351 -0.762838,2.54863 -0.855372,3.77921 -0.405887,5.39773 0.811825,2.92324 -3.082792,6.40433 -8.591648,7.67939 -1.559319,0.36091 -4.076426,0.46542 -12.874111,0.53451 -6.014702,0.0472 -11.72207,-0.0229 -12.683038,-0.15576 z"
       id="path41"
       inkscape:connector-curvature="0"
       transform="matrix(0.26458333,0,0,0.26458333,0,257.08542)" />
    <path
       style="fill:#000000;stroke-width:0.28040573"
       d="m 37.379213,149.88911 c -4.573528,-0.70605 -8.875783,-2.51187 -10.641972,-4.46683 -1.101625,-1.21937 -1.258498,-2.13457 -0.74533,-4.34827 0.225051,-0.97082 0.162743,-1.28777 -0.468547,-2.38345 -2.684278,-4.65885 -2.693597,-4.69908 -1.741499,-7.5184 l 0.586554,-1.73688 18.270731,7.4e-4 c 10.048901,4e-4 20.820505,0.0833 23.936894,0.18432 l 5.666164,0.18358 0.292458,0.83894 c 0.475302,1.36345 0.338472,3.30675 -0.408557,5.80256 -0.762838,2.54863 -0.855372,3.77921 -0.405887,5.39773 0.791271,2.84923 -2.673453,6.08231 -8.103274,7.5615 -1.981156,0.53971 -3.009064,0.59068 -13.362485,0.66263 -6.168926,0.0429 -11.962788,-0.0373 -12.87525,-0.17817 z"
       id="path43"
       inkscape:connector-curvature="0"
       transform="matrix(0.26458333,0,0,0.26458333,0,257.08542)" />
    <path
       style="fill:#000000;stroke-width:0.28040573"
       d="m 37.232583,149.88052 c -4.105879,-0.53135 -8.723127,-2.49661 -10.508482,-4.47279 l -1.065746,-1.17965 0.19224,-2.30782 0.19224,-2.30782 -1.423762,-2.48306 c -1.608792,-2.80576 -1.6948,-3.41775 -0.837208,-5.95722 l 0.586554,-1.73688 18.691339,7.9e-4 c 10.280236,4.4e-4 21.051809,0.0833 23.936825,0.18412 l 5.245485,0.18332 0.292528,0.83915 c 0.47328,1.35765 0.339734,3.28723 -0.402604,5.81716 -0.762821,2.59975 -0.85395,3.79112 -0.41177,5.38333 0.731217,2.63298 -2.585649,5.98513 -7.310491,7.38826 -0.719504,0.21367 -2.495317,0.51352 -3.946251,0.66633 -3.134857,0.33017 -20.646838,0.31718 -23.230897,-0.0172 z"
       id="path45"
       inkscape:connector-curvature="0"
       transform="matrix(0.26458333,0,0,0.26458333,0,257.08542)" />
    <path
       style="fill:#000000;stroke-width:0.28040573"
       d="m 37.232583,149.89465 c -4.173389,-0.57274 -8.732147,-2.52072 -10.513501,-4.49247 l -1.070766,-1.18521 0.188101,-2.31824 0.188101,-2.31824 -1.414604,-2.46708 c -1.599012,-2.7887 -1.684804,-3.40426 -0.828049,-5.94125 l 0.586554,-1.73688 20.794382,-0.0551 20.794382,-0.0551 -16.964546,-0.18501 c -9.3305,-0.10176 -18.636465,-0.20312 -20.679921,-0.22526 -2.781798,-0.0301 -3.715376,-0.12912 -3.715376,-0.39392 0,-0.27574 1.312992,-0.33813 5.958621,-0.28316 3.277242,0.0388 13.876578,0.14998 23.554081,0.24712 14.687968,0.14743 17.595459,0.24055 17.595459,0.56357 0,0.30019 -0.644415,0.39949 -2.874159,0.44288 l -2.874159,0.0559 3.212802,0.15438 c 3.131759,0.15047 3.217701,0.17205 3.407019,0.85538 0.396001,1.42934 0.22995,3.50288 -0.490982,6.13106 -0.672267,2.45079 -0.712676,2.87029 -0.43508,4.51663 0.264986,1.57155 0.238785,1.96636 -0.195392,2.94426 -0.640321,1.44221 -2.349447,2.97946 -4.544544,4.08754 -3.177454,1.60398 -4.308193,1.72761 -16.656543,1.82112 -6.168926,0.0467 -12.028772,-0.0266 -13.02188,-0.16286 z"
       id="path47"
       inkscape:connector-curvature="0"
       transform="matrix(0.26458333,0,0,0.26458333,0,257.08542)" />
    <path
       style="fill:#000000;stroke-width:0.28040573"
       d="m 37.108375,149.88075 c -2.315741,-0.31424 -6.487419,-1.67155 -8.172358,-2.65899 -0.669814,-0.39254 -1.683562,-1.2292 -2.252773,-1.85925 l -1.034928,-1.14554 0.188101,-2.31824 0.188101,-2.31824 -1.414604,-2.46708 c -1.599012,-2.7887 -1.684804,-3.40426 -0.828049,-5.94125 l 0.586554,-1.73688 18.691339,-0.055 18.69134,-0.055 -14.721301,-0.18482 c -8.096715,-0.10164 -16.45631,-0.20306 -18.576878,-0.22536 -2.894473,-0.0304 -3.855579,-0.1287 -3.855579,-0.39421 0,-0.27574 1.312992,-0.33813 5.958621,-0.28316 3.277242,0.0388 13.876578,0.14998 23.554081,0.24712 14.687968,0.14743 17.595459,0.24055 17.595459,0.56357 0,0.29339 -0.559331,0.39993 -2.313348,0.44062 l -2.313347,0.0537 2.65219,0.15663 c 2.532145,0.14954 2.660969,0.18836 2.846207,0.85764 0.39701,1.43445 0.228713,3.53735 -0.50017,6.24972 -0.689633,2.56631 -0.722595,2.92442 -0.408938,4.44299 0.303699,1.47038 0.283235,1.78218 -0.186406,2.84015 -0.664783,1.49758 -2.347988,3.02462 -4.570683,4.14663 -3.177406,1.60395 -4.308235,1.7276 -16.656543,1.82121 -6.168926,0.0468 -12.084665,-0.0328 -13.146088,-0.17685 z"
       id="path49"
       inkscape:connector-curvature="0"
       transform="matrix(0.26458333,0,0,0.26458333,0,257.08542)" />
    <path
       style="fill:#000000;stroke-width:0.28040573"
       d="m 36.935192,149.87109 c -2.246637,-0.33864 -6.382393,-1.70171 -7.947258,-2.61927 -0.641261,-0.37601 -1.657099,-1.18691 -2.257418,-1.802 l -1.091491,-1.11834 0.18977,-2.33881 0.18977,-2.33881 -1.429069,-2.51554 c -1.31548,-2.31559 -1.417888,-2.62697 -1.288408,-3.91756 0.07736,-0.77112 0.356718,-1.93831 0.620788,-2.59376 l 0.480128,-1.19172 16.010692,-0.0541 16.010693,-0.0541 -12.618257,-0.1876 c -6.940042,-0.10318 -14.100903,-0.20503 -15.913025,-0.22633 -2.580201,-0.0303 -3.294767,-0.12185 -3.294767,-0.42199 0,-0.31727 1.315795,-0.36527 7.641056,-0.27873 4.20258,0.0575 14.801917,0.18196 23.55408,0.27658 13.262675,0.14338 15.913025,0.2365 15.913025,0.55913 0,0.28588 -0.494894,0.40054 -1.892739,0.43852 l -1.892739,0.0514 2.231769,0.15888 c 2.081962,0.14822 2.244777,0.20594 2.425599,0.8599 0.392327,1.4189 0.231408,3.47249 -0.490342,6.25748 -0.654473,2.5254 -0.704803,3.03409 -0.435125,4.39794 0.167721,0.84823 0.233019,1.89268 0.145109,2.32101 -0.256815,1.25127 -2.404279,3.38722 -4.526897,4.50262 -3.507685,1.84324 -4.190527,1.92439 -17.015673,2.02219 -6.581118,0.0502 -12.275924,-0.0298 -13.319271,-0.18705 z"
       id="path51"
       inkscape:connector-curvature="0"
       transform="matrix(0.26458333,0,0,0.26458333,0,257.08542)" />
    <path
       style="fill:#000000;stroke-width:0.28040573"
       d="m 37.037946,149.90475 c -2.117122,-0.29435 -6.479282,-1.73193 -8.050012,-2.65293 -0.641261,-0.37601 -1.657099,-1.18691 -2.257418,-1.802 l -1.091491,-1.11834 0.193534,-2.3852 c 0.179746,-2.21528 0.145366,-2.46151 -0.482584,-3.45625 -1.698531,-2.69064 -2.225409,-4.06968 -2.066735,-5.40943 0.08417,-0.71069 0.364885,-1.82162 0.623811,-2.46874 l 0.470776,-1.17658 14.200144,-0.0539 14.200144,-0.0539 -11.496635,-0.18772 c -6.323149,-0.10325 -12.663823,-0.20517 -14.090387,-0.22649 -2.098457,-0.0314 -2.593753,-0.11889 -2.593753,-0.45833 0,-0.36595 1.012183,-0.40127 7.921462,-0.27649 4.356803,0.0787 14.95614,0.21946 23.55408,0.31284 13.025852,0.14146 15.632619,0.23432 15.632619,0.55689 0,0.27861 -0.451972,0.40101 -1.612333,0.43665 l -1.612333,0.0495 1.9515,0.16079 c 1.781451,0.14678 1.968376,0.22187 2.145194,0.8618 0.384332,1.39097 0.236427,3.37462 -0.470271,6.30713 -0.614832,2.55131 -0.676939,3.18731 -0.425665,4.35896 0.161811,0.7545 0.211519,1.7863 0.110463,2.2929 -0.248439,1.24544 -2.865721,3.79603 -4.902538,4.77761 -3.273871,1.57774 -4.138681,1.66943 -16.635055,1.76367 -6.323149,0.0477 -12.270582,-0.0209 -13.216517,-0.15242 z"
       id="path53"
       inkscape:connector-curvature="0"
       transform="matrix(0.26458333,0,0,0.26458333,0,257.08542)" />
    <path
       style="fill:#000000;stroke-width:0.28040573"
       d="m 37.194451,149.92515 c -3.914146,-0.54153 -8.077024,-2.24655 -10.10077,-4.13705 l -1.446348,-1.35111 0.165085,-2.35184 0.165083,-2.35184 -1.391095,-2.58047 c -1.541254,-2.85902 -1.644773,-3.57433 -0.873397,-6.03513 l 0.483437,-1.54223 12.187792,-0.14468 c 8.478286,-0.10064 10.217245,-0.16465 5.71345,-0.2103 -11.789399,-0.1195 -17.500348,-0.38753 -17.500348,-0.82133 0,-0.32379 1.55697,-0.36145 9.603896,-0.23231 5.282143,0.0848 15.881479,0.23055 23.55408,0.32396 11.316824,0.13777 13.950185,0.24004 13.950185,0.54178 0,0.24205 -0.465149,0.40863 -1.331928,0.47698 -1.311337,0.1034 -1.306895,0.1058 0.287346,0.15556 1.458727,0.0455 1.646388,0.12186 1.892739,0.76981 0.455076,1.19694 0.311183,3.28542 -0.441575,6.40906 -0.640662,2.6585 -0.68133,3.13848 -0.390964,4.61439 0.280311,1.42479 0.258649,1.78514 -0.160395,2.66821 -0.637942,1.34437 -2.879054,3.33298 -4.757843,4.22179 -3.214565,1.52073 -4.130261,1.61522 -16.548418,1.70756 -6.323149,0.047 -12.200154,-0.0119 -13.060012,-0.13081 z"
       id="path55"
       inkscape:connector-curvature="0"
       transform="matrix(0.26458333,0,0,0.26458333,0,257.08542)" />
    <path
       style="fill:#000000;stroke-width:0.28040573"
       d="m 36.935192,149.88894 c -1.861534,-0.27519 -5.895795,-1.52118 -7.400478,-2.28566 -0.600242,-0.30496 -1.720456,-1.14213 -2.489365,-1.86038 l -1.398016,-1.30591 0.165085,-2.35184 0.165083,-2.35184 -1.391095,-2.58047 c -1.554339,-2.88329 -1.683656,-3.81774 -0.854602,-6.17533 l 0.493027,-1.40203 9.509745,-0.14582 c 6.282169,-0.0963 7.844291,-0.16802 4.602644,-0.21123 -9.435985,-0.1258 -13.73988,-0.38855 -13.73988,-0.83882 0,-0.35119 1.318033,-0.38371 9.603896,-0.23693 5.282143,0.0936 15.881479,0.24838 23.55408,0.34404 11.284811,0.1407 13.950185,0.24469 13.950185,0.54432 0,0.22151 -0.42265,0.4146 -1.051522,0.48038 -0.958146,0.10022 -0.932629,0.11418 0.287346,0.15713 1.158538,0.0408 1.375701,0.14401 1.612333,0.7664 0.360069,0.94706 0.345863,3.35504 -0.02773,4.70045 -0.850045,3.06123 -1.064381,4.76906 -0.786906,6.27007 0.366272,1.98135 0.01551,3.02145 -1.509314,4.4754 -2.672337,2.54813 -5.183872,3.59267 -9.658729,4.01702 -3.516799,0.33349 -21.364961,0.32673 -23.635785,-0.009 z"
       id="path57"
       inkscape:connector-curvature="0"
       transform="matrix(0.26458333,0,0,0.26458333,0,257.08542)" />
    <path
       style="fill:#000000;stroke-width:0.28040573"
       d="m 37.075394,149.90447 c -4.49094,-0.67544 -8.265023,-2.29761 -10.346082,-4.44693 l -1.092694,-1.12853 0.158958,-2.31915 0.158958,-2.31915 -1.379611,-2.55917 c -1.542034,-2.86047 -1.670793,-3.8002 -0.843201,-6.15403 l 0.492946,-1.40203 7.406783,-0.14723 c 4.073731,-0.081 5.955684,-0.17607 4.182118,-0.21133 -7.773301,-0.15452 -11.216229,-0.4125 -11.216229,-0.84044 0,-0.35675 1.465639,-0.38805 11.146127,-0.23809 6.13037,0.095 16.729706,0.25159 23.554081,0.34805 9.966704,0.14088 12.407953,0.24781 12.407953,0.54349 0,0.20245 -0.347002,0.42067 -0.771116,0.48491 -0.615981,0.0933 -0.55817,0.12527 0.287346,0.15883 0.858924,0.0341 1.110014,0.17761 1.331927,0.76128 0.434144,1.14189 0.320958,3.24397 -0.318662,5.91823 -0.450861,1.88507 -0.556818,3.00454 -0.444134,4.69246 0.173504,2.59887 -0.03883,3.30044 -1.433984,4.73811 -2.366523,2.43864 -5.229452,3.66051 -9.636417,4.11275 -3.174117,0.32573 -21.491294,0.3319 -23.645067,0.008 z"
       id="path59"
       inkscape:connector-curvature="0"
       transform="matrix(0.26458333,0,0,0.26458333,0,257.08542)" />
    <path
       style="fill:#000000;stroke-width:0.28040573"
       d="m 36.878667,149.88248 c -3.973292,-0.58262 -7.690369,-2.13722 -9.779262,-4.09001 l -1.449961,-1.35548 0.146791,-2.35917 0.146791,-2.35917 -1.373857,-2.57126 c -1.535295,-2.87339 -1.663735,-3.81955 -0.837556,-6.16988 l 0.492838,-1.40203 5.86466,-0.14881 c 3.225563,-0.0819 4.729017,-0.17706 3.341009,-0.21158 -6.105906,-0.15186 -8.83278,-0.41147 -8.83278,-0.84091 0,-0.36231 1.565017,-0.39208 12.407953,-0.23609 33.241349,0.47825 34.700208,0.51583 34.700208,0.89407 0,0.20026 -0.283911,0.4188 -0.630913,0.48563 -0.452609,0.0872 -0.3714,0.13231 0.287346,0.15971 0.709617,0.0295 0.980393,0.20161 1.191724,0.75745 0.436875,1.14907 0.319463,3.36168 -0.323785,6.10156 -0.45887,1.95453 -0.557292,3.01663 -0.424795,4.58406 0.208437,2.46582 -0.03815,3.21195 -1.587996,4.80508 -2.255115,2.31809 -5.109225,3.51788 -9.447404,3.97143 -3.172522,0.33168 -21.606303,0.32042 -23.891011,-0.0146 z"
       id="path61"
       inkscape:connector-curvature="0"
       transform="matrix(0.26458333,0,0,0.26458333,0,257.08542)" />
    <path
       style="fill:#000000;stroke-width:0.28040573"
       d="m 36.878667,149.88248 c -3.972195,-0.58246 -7.690986,-2.13745 -9.7761,-4.08783 l -1.4468,-1.35332 0.127598,-2.38562 0.127598,-2.38562 -1.357826,-2.54698 c -1.517926,-2.84729 -1.645478,-3.80126 -0.821702,-6.1456 l 0.49266,-1.40203 4.46281,-0.15105 c 2.454545,-0.0831 3.768805,-0.17836 2.920578,-0.21175 -5.108318,-0.20108 -7.010143,-0.42904 -7.010143,-0.84025 0,-0.36633 1.622659,-0.39535 13.24917,-0.23691 29.669053,0.40433 33.858991,0.51535 33.858991,0.89723 0,0.19877 -0.22082,0.41911 -0.49071,0.48964 -0.299112,0.0782 -0.186916,0.14094 0.287345,0.16077 1.46825,0.0614 1.734234,2.56623 0.727737,6.85335 -0.45887,1.95453 -0.557292,3.01663 -0.424795,4.58406 0.208437,2.46582 -0.03815,3.21195 -1.587996,4.80508 -2.255115,2.31809 -5.109225,3.51788 -9.447404,3.97143 -3.172522,0.33168 -21.606303,0.32042 -23.891011,-0.0146 z"
       id="path63"
       inkscape:connector-curvature="0"
       transform="matrix(0.26458333,0,0,0.26458333,0,257.08542)" />
    <path
       style="fill:#000000;stroke-width:0.28040573"
       d="m 36.194976,149.78411 c -3.986557,-0.74898 -7.07457,-2.10201 -9.081224,-3.979 l -1.435615,-1.34285 0.06674,-2.53629 0.06674,-2.53629 -1.303463,-2.38345 c -1.464951,-2.67873 -1.596104,-3.69644 -0.776926,-6.02872 l 0.492443,-1.40203 3.481606,-0.1402 3.481606,-0.1402 -3.294767,-0.24393 c -2.658285,-0.1968 -3.294767,-0.32649 -3.294767,-0.67131 0,-0.37969 1.588205,-0.40709 14.23059,-0.24548 26.990324,0.34503 32.877571,0.50559 32.877571,0.89662 0,0.19666 -0.157729,0.42121 -0.350508,0.499 -0.192778,0.0778 -0.06347,0.15139 0.287346,0.16357 1.317046,0.0457 1.560309,2.8942 0.592685,6.94004 -0.453822,1.89753 -0.552598,2.95386 -0.42295,4.52324 0.212136,2.5679 -0.115687,3.40196 -2.042413,5.19645 -1.596986,1.48738 -4.118832,2.76125 -6.489407,3.27802 -2.361874,0.51488 -24.493512,0.63974 -27.085278,0.15281 z"
       id="path65"
       inkscape:connector-curvature="0"
       transform="matrix(0.26458333,0,0,0.26458333,0,257.08542)" />
    <path
       style="fill:#000000;stroke-width:0.28040573"
       d="m 36.788414,149.92185 c -3.852228,-0.60338 -7.640283,-2.21382 -9.667428,-4.10998 l -1.42838,-1.33608 0.04972,-2.45717 c 0.04903,-2.42322 0.03129,-2.49285 -1.283542,-5.03861 -1.216679,-2.35571 -1.320192,-2.70803 -1.183832,-4.02923 0.08218,-0.79628 0.343813,-1.91303 0.581398,-2.48165 l 0.431972,-1.03385 3.028669,-0.0438 3.02867,-0.0438 -2.874158,-0.27486 c -2.257576,-0.2159 -2.874159,-0.36587 -2.874159,-0.69907 0,-0.3757 1.723681,-0.40316 15.071807,-0.24018 8.289494,0.10122 18.898614,0.2651 23.575821,0.36417 8.08999,0.17137 8.497406,0.2054 8.368321,0.69902 -0.08535,0.32641 0.01317,0.51889 0.265606,0.51889 0.985511,0 1.26698,3.50019 0.496074,6.16892 -0.268729,0.93029 -0.468008,2.82174 -0.502229,4.7669 -0.0312,1.77356 -0.198165,3.48231 -0.371027,3.79722 -1.08074,1.96882 -4.838482,4.37822 -8.068181,5.17318 -1.636151,0.40273 -24.35605,0.65848 -26.645118,0.29994 z"
       id="path67"
       inkscape:connector-curvature="0"
       transform="matrix(0.26458333,0,0,0.26458333,0,257.08542)" />
    <path
       style="fill:#000000;stroke-width:0.28040573"
       d="m 36.743112,149.91634 c -3.931743,-0.61157 -7.900295,-2.33359 -9.868133,-4.28195 l -1.156016,-1.14458 v -2.48556 c 0,-2.3961 -0.04661,-2.57838 -1.294848,-5.06377 -1.1673,-2.32423 -1.280313,-2.71902 -1.147294,-4.00784 0.08115,-0.78631 0.34194,-1.89489 0.579525,-2.46351 l 0.431972,-1.03385 2.608061,-0.0443 2.608061,-0.0443 -2.45355,-0.27868 c -1.869368,-0.21233 -2.45355,-0.37876 -2.45355,-0.69902 0,-0.37076 1.877277,-0.39853 15.913024,-0.23539 8.752164,0.10172 19.361227,0.26602 23.575694,0.36511 7.268821,0.17089 7.655702,0.2068 7.527105,0.69855 -0.08523,0.32593 0.01343,0.51841 0.265732,0.51841 1.071161,0 1.221363,2.92438 0.364999,7.10629 -0.420741,2.05462 -0.53276,3.32652 -0.402074,4.56529 0.233286,2.21137 -0.181294,3.20493 -2.072159,4.96601 -1.529165,1.42421 -3.980598,2.68884 -6.336129,3.26863 -1.650903,0.40636 -24.360293,0.65687 -26.69042,0.29443 z"
       id="path69"
       inkscape:connector-curvature="0"
       transform="matrix(0.26458333,0,0,0.26458333,0,257.08542)" />
    <path
       style="fill:#000000;stroke-width:0.28040573"
       d="m 36.743112,149.91634 c -3.931743,-0.61157 -7.900295,-2.33359 -9.868133,-4.28195 l -1.156016,-1.14458 v -2.48714 c 0,-2.39344 -0.04754,-2.58056 -1.261826,-4.96674 -1.408634,-2.76809 -1.535638,-3.78207 -0.758842,-6.05842 l 0.478436,-1.40203 2.243246,-0.14674 2.243246,-0.14674 -2.032942,-0.24 c -1.530495,-0.18068 -2.032941,-0.34573 -2.032941,-0.66782 0,-0.38069 1.784072,-0.40746 16.19343,-0.24302 24.564744,0.28034 30.914731,0.47045 30.914731,0.92551 0,0.20823 0.252365,0.63097 0.560811,0.93942 0.713487,0.71349 0.761215,3.31957 0.111374,6.08143 -0.247191,1.05057 -0.473019,3.23505 -0.501839,4.85439 -0.02882,1.61935 -0.195504,3.20191 -0.370413,3.51682 -1.098843,1.97837 -4.84416,4.3787 -8.071902,5.17318 -1.650903,0.40636 -24.360293,0.65687 -26.69042,0.29443 z"
       id="path71"
       inkscape:connector-curvature="0"
       transform="matrix(0.26458333,0,0,0.26458333,0,257.08542)" />
    <path
       style="fill:#000000;stroke-width:0.28040573"
       d="m 36.559377,149.90504 c -3.969366,-0.7057 -7.713195,-2.34376 -9.683246,-4.23676 l -1.157168,-1.11191 v -2.46558 c 0,-2.3562 -0.05597,-2.57905 -1.261826,-5.02392 -1.403559,-2.84571 -1.527187,-3.83777 -0.758842,-6.08936 l 0.478436,-1.40203 1.96284,-0.1496 1.96284,-0.14961 -1.752535,-0.23712 c -1.280989,-0.17332 -1.752536,-0.35231 -1.752536,-0.66523 0,-0.38123 1.865715,-0.40774 17.034647,-0.24209 21.314651,0.23277 30.073514,0.46897 30.073514,0.81099 0,0.14509 0.252365,0.58463 0.560811,0.97676 0.689694,0.8768 0.748874,3.5612 0.134595,6.10523 -0.223433,0.92534 -0.408212,2.91677 -0.410621,4.4254 -0.0028,1.69667 -0.152927,3.09849 -0.393816,3.67501 -0.882731,2.11268 -4.851419,4.80103 -8.162938,5.52949 -1.728317,0.3802 -24.928182,0.5963 -26.874155,0.25033 z"
       id="path73"
       inkscape:connector-curvature="0"
       transform="matrix(0.26458333,0,0,0.26458333,0,257.08542)" />
    <path
       style="fill:#000000;stroke-width:0.28040573"
       d="m 35.953772,149.78305 c -3.823311,-0.73774 -7.38029,-2.37004 -9.259364,-4.24911 -0.96644,-0.96644 -0.975445,-0.99832 -0.975445,-3.45271 0,-2.38272 -0.04815,-2.57164 -1.261826,-4.95016 -1.420068,-2.78302 -1.579347,-4.12071 -0.749403,-6.29376 l 0.481923,-1.26183 1.675971,-0.15334 1.675972,-0.15335 -1.47213,-0.23328 c -1.032394,-0.16361 -1.47213,-0.36137 -1.47213,-0.66208 0,-0.38219 1.896672,-0.4084 17.455256,-0.24117 21.169476,0.22753 29.652905,0.45966 29.652905,0.81139 0,0.14463 0.252365,0.5838 0.560811,0.97593 0.687947,0.87458 0.746628,3.48847 0.140203,6.24544 -0.2205,1.00245 -0.405341,2.99388 -0.410758,4.42539 -0.0059,1.56464 -0.165179,2.97452 -0.399287,3.53481 -0.882731,2.11268 -4.851419,4.80103 -8.162938,5.52949 -2.244376,0.49372 -25.034593,0.60015 -27.47976,0.12834 z"
       id="path75"
       inkscape:connector-curvature="0"
       transform="matrix(0.26458333,0,0,0.26458333,0,257.08542)" />
    <path
       style="fill:#000000;stroke-width:0.28040573"
       d="m 35.953772,149.78387 c -3.596616,-0.69551 -6.8913,-2.15382 -9.113186,-4.03373 -0.975099,-0.82502 -0.982348,-0.84822 -1.125541,-3.60325 -0.133002,-2.55897 -0.235753,-2.95614 -1.331927,-5.14849 -1.332995,-2.66599 -1.456909,-3.71588 -0.71599,-6.06635 l 0.471817,-1.49677 1.561125,-0.0386 1.561124,-0.0386 -1.331927,-0.28879 c -0.865599,-0.18768 -1.331927,-0.43543 -1.331927,-0.70763 0,-0.36911 2.138846,-0.39656 18.016067,-0.23117 9.908837,0.10321 20.484642,0.26854 23.501785,0.3674 l 5.485717,0.17975 0.613107,1.0653 c 0.743838,1.29244 0.803778,3.32213 0.192451,6.51686 -0.231309,1.2088 -0.420561,3.26332 -0.420561,4.5656 0,1.38612 -0.161457,2.75421 -0.389436,3.29984 -0.853978,2.04386 -4.228383,4.42945 -7.624966,5.39058 -1.411366,0.39938 -3.484027,0.48294 -13.857244,0.55863 -9.405294,0.0686 -12.646993,0.002 -14.160488,-0.29056 z"
       id="path77"
       inkscape:connector-curvature="0"
       transform="matrix(0.26458333,0,0,0.26458333,0,257.08542)" />
    <path
       style="fill:#000000;stroke-width:0.28040573"
       d="m 36.47584,149.91865 c -3.503178,-0.54772 -7.597792,-2.33886 -9.624989,-4.21036 l -1.131888,-1.04496 -0.0013,-2.35642 c -0.0012,-2.20847 -0.08033,-2.52367 -1.26056,-5.02027 -1.40391,-2.96977 -1.532057,-4.00054 -0.790009,-6.35459 l 0.471817,-1.49677 1.280719,-0.0354 1.280719,-0.0354 -1.051522,-0.29442 c -0.61089,-0.17105 -1.051521,-0.46893 -1.051521,-0.71086 0,-0.36598 2.233564,-0.39373 18.436676,-0.22906 10.140172,0.10306 20.71585,0.2682 23.501507,0.36698 l 5.064834,0.17961 0.613382,1.06577 c 0.744135,1.29297 0.804142,3.32216 0.192728,6.51735 -0.231309,1.2088 -0.420561,3.26332 -0.420561,4.5656 0,1.38612 -0.161457,2.75421 -0.389436,3.29984 -0.853978,2.04386 -4.228383,4.42945 -7.624966,5.39058 -1.414229,0.40019 -3.462979,0.48134 -13.857244,0.54886 -6.708706,0.0436 -12.845996,-0.0221 -13.63842,-0.14601 z"
       id="path79"
       inkscape:connector-curvature="0"
       transform="matrix(0.26458333,0,0,0.26458333,0,257.08542)" />
    <path
       style="fill:#000000;stroke-width:0.28040573"
       d="m 36.514583,149.91875 c -3.456159,-0.55502 -6.952253,-2.01346 -9.290078,-3.87548 l -1.438718,-1.1459 -0.128169,-2.75384 c -0.118059,-2.5366 -0.220238,-2.9407 -1.295238,-5.12246 -1.309406,-2.6575 -1.434506,-3.74383 -0.699612,-6.07518 0.454093,-1.44055 0.500185,-1.48582 1.612333,-1.58359 l 1.144876,-0.10064 -0.911318,-0.22865 c -0.533853,-0.13394 -0.911319,-0.40721 -0.911319,-0.65976 0,-0.38549 1.995588,-0.41102 18.857285,-0.24126 10.371506,0.10442 20.947311,0.26991 23.501787,0.36774 l 4.6445,0.17789 0.613107,1.0653 c 0.736491,1.27968 0.79552,3.24838 0.196761,6.5623 -0.22292,1.23378 -0.409709,3.2883 -0.41509,4.5656 -0.0056,1.32479 -0.177065,2.72271 -0.39922,3.2544 -0.853978,2.04386 -4.228383,4.42945 -7.624966,5.39058 -1.414229,0.40019 -3.462979,0.48134 -13.857244,0.54886 -6.708706,0.0436 -12.828561,-0.0221 -13.599677,-0.14591 z"
       id="path81"
       inkscape:connector-curvature="0"
       transform="matrix(0.26458333,0,0,0.26458333,0,257.08542)" />
    <path
       style="fill:#000000;stroke-width:0.27881041"
       d="m 36.351159,149.89952 c -3.308751,-0.50268 -7.277127,-2.22021 -9.536983,-4.12763 -0.963569,-0.8133 -0.976337,-0.85328 -1.137774,-3.56202 -0.146257,-2.45405 -0.284385,-2.99769 -1.325681,-5.21767 -1.302006,-2.77579 -1.42575,-3.92766 -0.662289,-6.16494 0.445056,-1.30421 0.547588,-1.40497 1.590956,-1.56359 1.048595,-0.15941 1.061092,-0.17191 0.209108,-0.20911 -1.169222,-0.0511 -1.21137,-0.76465 -0.0601,-1.01751 1.210168,-0.2658 45.475837,0.42176 46.023501,0.71487 1.221095,0.65351 1.776316,4.11077 1.094476,6.81512 -0.15465,0.61338 -0.351998,2.43262 -0.438552,4.04275 -0.08655,1.61013 -0.221799,3.3496 -0.300543,3.86548 -0.192566,1.26158 -2.261434,3.43725 -4.412301,4.64008 -3.263774,1.8252 -3.71134,1.87653 -17.16206,1.96805 -6.777864,0.0461 -12.901814,-0.035 -13.88176,-0.18388 z"
       id="path3713"
       inkscape:connector-curvature="0"
       transform="matrix(0.26458333,0,0,0.26458333,0,257.08542)" />
    <path
       style="fill:#000000;stroke-width:0.27881041"
       d="m 36.440386,149.90926 c -3.472476,-0.53728 -7.300157,-2.16136 -9.482512,-4.02342 l -1.109618,-0.94677 -0.184232,-2.73434 c -0.161922,-2.40322 -0.322978,-3.03449 -1.329973,-5.21292 -1.283189,-2.77593 -1.405017,-3.93918 -0.645619,-6.16455 0.425532,-1.24699 0.578653,-1.41223 1.451551,-1.56645 0.849596,-0.1501 0.876648,-0.17716 0.209107,-0.20911 -0.976904,-0.0468 -1.025155,-0.79765 -0.06671,-1.0382 1.045501,-0.26241 45.62498,0.44699 46.16235,0.73458 1.36599,0.73105 1.689544,3.36458 0.974789,7.9342 -0.239855,1.53346 -0.436838,3.62683 -0.437741,4.65193 -8.37e-4,1.0251 -0.134398,2.21701 -0.296652,2.6487 -0.441783,1.17538 -2.419932,3.07534 -4.306608,4.13637 -3.235603,1.81965 -3.697506,1.87257 -17.145597,1.96454 -6.670539,0.0456 -12.877179,-0.0329 -13.792533,-0.17456 z"
       id="path3715"
       inkscape:connector-curvature="0"
       transform="matrix(0.26458333,0,0,0.26458333,0,257.08542)" />
  </g>
</svg>
